<svg width="44" height="54" viewBox="0 0 44 54" fill="none" xmlns="http://www.w3.org/2000/svg">
<path d="M21.445 163.867C20.2442 165.178 18.9888 165.56 17.6788 165.014C16.3688 164.468 15.9867 163.322 16.5325 161.575C18.2792 156.226 19.753 150.877 20.9538 145.527C22.1546 140.069 23.3555 135.266 24.5563 131.117C25.7571 126.86 27.1217 123.585 28.65 121.292C30.1784 118.891 32.0888 118.017 34.3813 118.672C39.403 120.31 40.8221 124.677 38.6388 131.773C36.4555 138.759 30.7242 149.457 21.445 163.867ZM37.82 163.867C36.6192 165.178 35.3638 165.56 34.0538 165.014C32.7438 164.468 32.3617 163.322 32.9075 161.575C35.855 153.606 38.2567 146.455 40.1125 140.124C41.9684 133.792 43.6059 128.552 45.025 124.404C46.4442 120.146 47.918 117.035 49.4463 115.07C50.9746 113.105 52.885 112.45 55.1775 113.105C57.6884 113.978 59.053 115.78 59.2713 118.509C59.5988 121.129 58.9438 124.622 57.3063 128.989C55.6688 133.246 53.158 138.322 49.7738 144.217C46.4988 150.112 42.5142 156.662 37.82 163.867Z" transform="translate(-16 -112)" fill="#4F4F4F" fill-opacity="0.1"/>
</svg>
