<svg width="210" height="21" viewBox="0 0 210 21" fill="none" xmlns="http://www.w3.org/2000/svg">
<path d="M6.227 14.729H6.929C7.579 14.729 8.047 14.5253 8.333 14.118L12.597 7.93C12.8483 7.60067 13.117 7.37533 13.403 7.254C13.6977 7.124 14.0617 7.059 14.495 7.059H18.317L12.701 14.716C12.3023 15.2447 11.8733 15.626 11.414 15.86C11.7433 15.9813 12.0423 16.1503 12.311 16.367C12.5797 16.5837 12.831 16.8653 13.065 17.212L18.785 26H14.859C14.6077 26 14.391 25.9827 14.209 25.948C14.0357 25.9133 13.884 25.8613 13.754 25.792C13.624 25.7227 13.5113 25.6403 13.416 25.545C13.3207 25.441 13.2297 25.324 13.143 25.194L8.853 18.603C8.697 18.3603 8.49767 18.1913 8.255 18.096C8.021 17.992 7.70033 17.94 7.293 17.94H6.227V26H1.833V7.059H6.227V14.729ZM24.6104 26H20.1904V7.059H24.6104V26ZM44.8006 7.059V26H42.5126C42.1746 26 41.8886 25.948 41.6546 25.844C41.4293 25.7313 41.204 25.5407 40.9786 25.272L32.0476 13.975C32.0823 14.313 32.104 14.6423 32.1126 14.963C32.13 15.275 32.1386 15.5697 32.1386 15.847V26H28.2646V7.059H30.5786C30.7693 7.059 30.9296 7.06767 31.0596 7.085C31.1896 7.10233 31.3066 7.137 31.4106 7.189C31.5146 7.23233 31.6143 7.29733 31.7096 7.384C31.805 7.47067 31.9133 7.58767 32.0346 7.735L41.0436 19.11C41.0003 18.746 40.97 18.395 40.9526 18.057C40.9353 17.7103 40.9266 17.3853 40.9266 17.082V7.059H44.8006ZM57.5756 16.185H64.3096V24.18C63.3389 24.8907 62.3032 25.4063 61.2026 25.727C60.1106 26.0477 58.9666 26.208 57.7706 26.208C56.2106 26.208 54.7892 25.9653 53.5066 25.48C52.2326 24.986 51.1406 24.31 50.2306 23.452C49.3206 22.5853 48.6186 21.5627 48.1246 20.384C47.6306 19.1967 47.3836 17.9097 47.3836 16.523C47.3836 15.1103 47.6176 13.8147 48.0856 12.636C48.5536 11.4487 49.2209 10.426 50.0876 9.568C50.9629 8.71 52.0159 8.04267 53.2466 7.566C54.4859 7.08933 55.8682 6.851 57.3936 6.851C58.1822 6.851 58.9232 6.916 59.6166 7.046C60.3099 7.176 60.9469 7.35367 61.5276 7.579C62.1169 7.80433 62.6542 8.073 63.1396 8.385C63.6249 8.697 64.0582 9.035 64.4396 9.399L63.1656 11.336C62.9662 11.6393 62.7062 11.8257 62.3856 11.895C62.0736 11.9643 61.7356 11.8863 61.3716 11.661C61.0249 11.453 60.6956 11.2753 60.3836 11.128C60.0802 10.972 59.7682 10.8463 59.4476 10.751C59.1269 10.6557 58.7889 10.5863 58.4336 10.543C58.0782 10.4997 57.6796 10.478 57.2376 10.478C56.4142 10.478 55.6732 10.6253 55.0146 10.92C54.3559 11.206 53.7926 11.6133 53.3246 12.142C52.8652 12.6707 52.5099 13.3077 52.2586 14.053C52.0072 14.7897 51.8816 15.613 51.8816 16.523C51.8816 17.5283 52.0202 18.421 52.2976 19.201C52.5749 19.981 52.9649 20.6397 53.4676 21.177C53.9789 21.7143 54.5856 22.126 55.2876 22.412C55.9982 22.6893 56.7826 22.828 57.6406 22.828C58.1692 22.828 58.6459 22.776 59.0706 22.672C59.5039 22.568 59.9242 22.4293 60.3316 22.256V19.383H58.4596C58.1822 19.383 57.9656 19.3093 57.8096 19.162C57.6536 19.0147 57.5756 18.8283 57.5756 18.603V16.185ZM77.7296 10.907C77.5996 11.115 77.461 11.271 77.3136 11.375C77.175 11.479 76.993 11.531 76.7676 11.531C76.5683 11.531 76.3516 11.4703 76.1176 11.349C75.8923 11.219 75.6323 11.076 75.3376 10.92C75.0516 10.764 74.7223 10.6253 74.3496 10.504C73.977 10.374 73.5523 10.309 73.0756 10.309C72.2523 10.309 71.637 10.4867 71.2296 10.842C70.831 11.1887 70.6316 11.661 70.6316 12.259C70.6316 12.6403 70.753 12.9567 70.9956 13.208C71.2383 13.4593 71.5546 13.676 71.9446 13.858C72.3433 14.04 72.794 14.209 73.2966 14.365C73.808 14.5123 74.328 14.6813 74.8566 14.872C75.3853 15.054 75.901 15.2707 76.4036 15.522C76.915 15.7733 77.3656 16.094 77.7556 16.484C78.1543 16.874 78.475 17.3507 78.7176 17.914C78.9603 18.4687 79.0816 19.1403 79.0816 19.929C79.0816 20.8043 78.93 21.6233 78.6266 22.386C78.3233 23.1487 77.8813 23.816 77.3006 24.388C76.7286 24.9513 76.018 25.3977 75.1686 25.727C74.328 26.0477 73.3703 26.208 72.2956 26.208C71.7063 26.208 71.104 26.1473 70.4886 26.026C69.882 25.9047 69.2926 25.7357 68.7206 25.519C68.1486 25.2937 67.6113 25.0293 67.1086 24.726C66.606 24.4227 66.1683 24.0847 65.7956 23.712L67.0956 21.658C67.1996 21.5107 67.334 21.3893 67.4986 21.294C67.672 21.19 67.8583 21.138 68.0576 21.138C68.3176 21.138 68.5776 21.2203 68.8376 21.385C69.1063 21.5497 69.4053 21.7317 69.7346 21.931C70.0726 22.1303 70.4583 22.3123 70.8916 22.477C71.325 22.6417 71.8363 22.724 72.4256 22.724C73.223 22.724 73.8426 22.5507 74.2846 22.204C74.7266 21.8487 74.9476 21.2897 74.9476 20.527C74.9476 20.085 74.8263 19.7253 74.5836 19.448C74.341 19.1707 74.0203 18.941 73.6216 18.759C73.2316 18.577 72.7853 18.4167 72.2826 18.278C71.78 18.1393 71.2643 17.9877 70.7356 17.823C70.207 17.6497 69.6913 17.4417 69.1886 17.199C68.686 16.9477 68.2353 16.6227 67.8366 16.224C67.4466 15.8167 67.1303 15.314 66.8876 14.716C66.645 14.1093 66.5236 13.364 66.5236 12.48C66.5236 11.7693 66.6666 11.076 66.9526 10.4C67.2386 9.724 67.659 9.12167 68.2136 8.593C68.7683 8.06433 69.4486 7.644 70.2546 7.332C71.0606 7.01133 71.9836 6.851 73.0236 6.851C73.6043 6.851 74.1676 6.89867 74.7136 6.994C75.2683 7.08067 75.7926 7.215 76.2866 7.397C76.7806 7.57033 77.24 7.78267 77.6646 8.034C78.098 8.27667 78.4836 8.554 78.8216 8.866L77.7296 10.907ZM93.0751 22.49V26H81.6611V7.059H86.0551V22.49H93.0751ZM99.7413 10.439V14.859H105.695V18.109H99.7413V22.62H107.515V26H95.3213V7.059H107.515V10.439H99.7413ZM119.3 18.798V26H114.906V18.798L108.042 7.059H111.916C112.297 7.059 112.596 7.15 112.813 7.332C113.038 7.50533 113.224 7.73067 113.372 8.008L116.05 13.52C116.275 13.9533 116.479 14.3607 116.661 14.742C116.843 15.1147 117.003 15.483 117.142 15.847C117.272 15.4743 117.419 15.1017 117.584 14.729C117.757 14.3477 117.956 13.9447 118.182 13.52L120.834 8.008C120.894 7.89533 120.968 7.78267 121.055 7.67C121.141 7.55733 121.241 7.45767 121.354 7.371C121.475 7.27567 121.609 7.202 121.757 7.15C121.913 7.08933 122.082 7.059 122.264 7.059H126.164L119.3 18.798ZM135.548 22.529C136.137 22.529 136.661 22.4337 137.121 22.243C137.589 22.0437 137.983 21.762 138.304 21.398C138.624 21.034 138.867 20.592 139.032 20.072C139.205 19.5433 139.292 18.9453 139.292 18.278V7.059H143.686V18.278C143.686 19.4393 143.495 20.5053 143.114 21.476C142.741 22.4467 142.204 23.283 141.502 23.985C140.8 24.687 139.946 25.233 138.941 25.623C137.935 26.013 136.804 26.208 135.548 26.208C134.282 26.208 133.147 26.013 132.142 25.623C131.136 25.233 130.283 24.687 129.581 23.985C128.879 23.283 128.341 22.4467 127.969 21.476C127.596 20.5053 127.41 19.4393 127.41 18.278V7.059H131.804V18.265C131.804 18.9323 131.886 19.5303 132.051 20.059C132.224 20.579 132.471 21.0253 132.792 21.398C133.112 21.762 133.502 22.0437 133.962 22.243C134.43 22.4337 134.958 22.529 135.548 22.529ZM151.512 14.729H152.214C152.864 14.729 153.332 14.5253 153.618 14.118L157.882 7.93C158.133 7.60067 158.402 7.37533 158.688 7.254C158.983 7.124 159.347 7.059 159.78 7.059H163.602L157.986 14.716C157.587 15.2447 157.158 15.626 156.699 15.86C157.028 15.9813 157.327 16.1503 157.596 16.367C157.865 16.5837 158.116 16.8653 158.35 17.212L164.07 26H160.144C159.893 26 159.676 25.9827 159.494 25.948C159.321 25.9133 159.169 25.8613 159.039 25.792C158.909 25.7227 158.796 25.6403 158.701 25.545C158.606 25.441 158.515 25.324 158.428 25.194L154.138 18.603C153.982 18.3603 153.783 18.1913 153.54 18.096C153.306 17.992 152.985 17.94 152.578 17.94H151.512V26H147.118V7.059H151.512V14.729ZM169.896 10.439V14.859H175.85V18.109H169.896V22.62H177.67V26H165.476V7.059H177.67V10.439H169.896ZM188.219 19.136C188.219 20.1933 188.085 21.1553 187.816 22.022C187.556 22.8887 187.157 23.634 186.62 24.258C186.091 24.8733 185.424 25.3543 184.618 25.701C183.812 26.039 182.863 26.208 181.771 26.208C181.277 26.208 180.787 26.182 180.302 26.13C179.825 26.078 179.327 25.9913 178.807 25.87L179.041 23.309C179.067 23.0837 179.158 22.9017 179.314 22.763C179.47 22.6243 179.691 22.555 179.977 22.555C180.124 22.555 180.306 22.581 180.523 22.633C180.74 22.6763 181 22.698 181.303 22.698C181.728 22.698 182.096 22.6417 182.408 22.529C182.729 22.4077 182.993 22.2127 183.201 21.944C183.409 21.6667 183.565 21.307 183.669 20.865C183.773 20.423 183.825 19.877 183.825 19.227V7.059H188.219V19.136ZM196.124 10.439V14.859H202.078V18.109H196.124V22.62H203.898V26H191.704V7.059H203.898V10.439H196.124ZM205.594 23.959C205.594 23.647 205.651 23.3567 205.763 23.088C205.885 22.8193 206.045 22.5853 206.244 22.386C206.452 22.1867 206.695 22.0307 206.972 21.918C207.25 21.7967 207.553 21.736 207.882 21.736C208.203 21.736 208.502 21.7967 208.779 21.918C209.057 22.0307 209.299 22.1867 209.507 22.386C209.715 22.5853 209.876 22.8193 209.988 23.088C210.11 23.3567 210.17 23.647 210.17 23.959C210.17 24.271 210.11 24.5657 209.988 24.843C209.876 25.1117 209.715 25.3457 209.507 25.545C209.299 25.7443 209.057 25.9003 208.779 26.013C208.502 26.1257 208.203 26.182 207.882 26.182C207.553 26.182 207.25 26.1257 206.972 26.013C206.695 25.9003 206.452 25.7443 206.244 25.545C206.045 25.3457 205.885 25.1117 205.763 24.843C205.651 24.5657 205.594 24.271 205.594 23.959Z" transform="translate(-1 -6)" fill="white"/>
</svg>
