<svg width="44" height="54" viewBox="0 0 44 54" fill="none" xmlns="http://www.w3.org/2000/svg">
<path d="M46.6625 119.327C47.8634 118.017 49.1188 117.635 50.4288 118.181C51.7388 118.727 52.1209 119.873 51.575 121.62C49.8284 127.078 48.3546 132.482 47.1538 137.831C45.953 143.18 44.7521 147.984 43.5513 152.241C42.3505 156.39 40.9859 159.665 39.4575 162.066C37.9292 164.359 36.0188 165.178 33.7263 164.523C28.7046 162.885 27.2309 158.573 29.305 151.586C31.4884 144.49 37.2742 133.738 46.6625 119.327ZM30.2875 119.327C31.4884 118.017 32.7438 117.635 34.0538 118.181C35.3638 118.727 35.7459 119.873 35.2 121.62C32.2525 129.698 29.8509 136.903 27.995 143.235C26.1392 149.458 24.5017 154.698 23.0825 158.955C21.6634 163.103 20.1896 166.16 18.6613 168.125C17.133 170.09 15.2225 170.745 12.93 170.09C10.4192 169.326 9.00004 167.579 8.67254 164.85C8.45421 162.121 9.16379 158.628 10.8013 154.37C12.4388 150.003 14.895 144.873 18.17 138.977C21.5542 133.082 25.5934 126.532 30.2875 119.327Z" transform="translate(-8 -117)" fill="#4F4F4F" fill-opacity="0.1"/>
</svg>
