<svg width="93" height="103" viewBox="0 0 93 103" fill="none" xmlns="http://www.w3.org/2000/svg">
<path d="M39.0789 47.9606C39.5447 48.1756 39.8135 48.4265 39.8851 48.7131C39.9747 48.9998 39.921 49.2417 39.7239 49.4388C39.5268 49.6358 39.2222 49.7612 38.8101 49.815C38.3981 49.8687 37.9412 49.7702 37.4395 49.5194C34.2324 47.9248 31.1956 46.4915 28.3289 45.2194C25.4622 43.9473 22.7389 42.8275 20.1589 41.86C17.5968 40.8925 15.1512 40.0594 12.822 39.3606C10.5108 38.6619 8.30701 38.0796 6.21076 37.6138C5.94201 38.5633 5.6643 39.5487 5.37764 40.57C5.09097 41.5912 4.78639 42.7021 4.46389 43.9025C4.35639 44.2967 4.23097 44.5565 4.08764 44.6819C3.9443 44.8252 3.80993 44.861 3.68451 44.7894C3.57701 44.7177 3.49639 44.5475 3.44264 44.2788C3.4068 44.01 3.43368 43.6606 3.52326 43.2306C3.73826 42.2452 3.9443 41.2688 4.14139 40.3013C4.35639 39.3337 4.58035 38.3394 4.81326 37.3181C4.22201 37.1927 3.63972 37.0852 3.06639 36.9956C2.49305 36.8881 1.91972 36.7896 1.34639 36.7C1.32847 36.7 1.23889 36.6642 1.07764 36.5925C0.916387 36.5208 0.764095 36.4133 0.620762 36.27C0.495345 36.1267 0.423678 35.9565 0.405762 35.7594C0.405762 35.5623 0.567012 35.3294 0.889512 35.0606C1.48076 34.5769 2.23326 34.0304 3.14701 33.4213C4.06076 32.8121 5.09993 32.1492 6.26451 31.4325C6.62285 30.035 7.03493 28.5658 7.50076 27.025C7.9666 25.4842 8.49514 23.8358 9.08639 22.08C9.69555 20.3242 10.3853 18.4429 11.1558 16.4362C11.9262 14.4296 12.8041 12.2617 13.7895 9.9325C14.0403 9.32333 14.3628 9.01875 14.757 9.01875C15.1512 9.01875 15.5006 9.20688 15.8051 9.58313C16.1097 9.94146 16.3158 10.4342 16.4233 11.0612C16.5487 11.6704 16.4591 12.2975 16.1545 12.9425C15.2408 14.8954 14.4166 16.6781 13.682 18.2906C12.9474 19.8852 12.2845 21.3633 11.6933 22.725C11.102 24.0687 10.5645 25.3319 10.0808 26.5144C9.59701 27.679 9.15805 28.7988 8.76389 29.8738C10.1793 29.0138 11.6843 28.109 13.2789 27.1594C14.8735 26.1919 16.5128 25.1975 18.197 24.1762C19.8812 23.1371 21.5743 22.071 23.2764 20.9781C24.9964 19.8673 26.6716 18.7475 28.302 17.6188C29.9503 16.49 31.527 15.3523 33.032 14.2056C34.537 13.059 35.9256 11.9123 37.1976 10.7656C37.5918 10.4252 37.9681 10.3267 38.3264 10.47C38.6847 10.5954 38.9535 10.8552 39.1326 11.2494C39.3118 11.6256 39.3656 12.0646 39.2939 12.5663C39.2222 13.05 38.9624 13.4621 38.5145 13.8025C36.257 15.5225 33.8203 17.1888 31.2045 18.8012C28.6066 20.4137 25.9639 21.9725 23.2764 23.4775C20.5889 24.9825 17.9372 26.4427 15.3214 27.8581C12.7056 29.2735 10.2689 30.6531 8.01139 31.9969C7.76055 32.7135 7.51868 33.4212 7.28576 34.12C7.05285 34.8187 6.82889 35.5444 6.61389 36.2969C10.6272 37.1927 15.3124 38.5902 20.6695 40.4894C26.0445 42.3706 32.181 44.861 39.0789 47.9606ZM5.75389 33.3406C5.18055 33.699 4.61618 34.0573 4.06076 34.4156C3.52326 34.774 3.00368 35.1323 2.50201 35.4906C3.37993 35.634 4.25785 35.7952 5.13576 35.9744L5.75389 33.3406ZM31.5001 32.185C31.9301 31.3429 32.4139 30.7337 32.9514 30.3575C33.5068 29.9812 33.9995 29.7752 34.4295 29.7394C34.8595 29.7035 35.1641 29.811 35.3433 30.0619C35.5224 30.2948 35.4508 30.6083 35.1283 31.0025C34.7162 31.5042 34.3041 32.1402 33.892 32.9106C33.4978 33.6631 33.1216 34.4694 32.7633 35.3294C32.4049 36.1715 32.0914 37.0225 31.8226 37.8825C31.5539 38.7425 31.3568 39.5129 31.2314 40.1937C31.6793 39.9608 32.1989 39.5308 32.7901 38.9038C33.3993 38.2767 34.0264 37.551 34.6714 36.7269C35.3164 35.8848 35.9524 34.9979 36.5795 34.0663C37.2245 33.1346 37.8068 32.2477 38.3264 31.4056C38.5951 30.9756 38.846 30.689 39.0789 30.5456C39.3118 30.4023 39.482 30.3754 39.5895 30.465C39.7149 30.5367 39.7597 30.7158 39.7239 31.0025C39.6881 31.2892 39.5358 31.6565 39.267 32.1044C38.7116 33.0181 38.0935 33.9677 37.4126 34.9531C36.7497 35.9206 36.0689 36.8523 35.3701 37.7481C34.6714 38.644 33.9726 39.4592 33.2739 40.1937C32.5751 40.9283 31.9301 41.4927 31.3389 41.8869C31.0701 42.066 30.7924 42.1735 30.5058 42.2094C30.2191 42.2631 29.9683 42.2273 29.7533 42.1019C29.5203 41.9944 29.3501 41.7883 29.2426 41.4838C29.1351 41.1971 29.1262 40.794 29.2158 40.2744C29.2695 39.9519 29.3501 39.495 29.4576 38.9038C29.5651 38.2946 29.7085 37.6227 29.8876 36.8881C30.0489 36.1356 30.2639 35.3562 30.5326 34.55C30.8014 33.7258 31.1239 32.9375 31.5001 32.185ZM36.9289 21.7306C37.4843 21.9277 37.7799 22.2412 37.8158 22.6712C37.8516 23.1012 37.7531 23.5402 37.5201 23.9881C37.3051 24.4181 37.0185 24.7944 36.6601 25.1169C36.3197 25.4394 36.0331 25.5917 35.8001 25.5738C35.6389 25.5558 35.5045 25.4304 35.397 25.1975C35.3074 24.9646 35.2447 24.6869 35.2089 24.3644C35.1731 24.0419 35.1731 23.7015 35.2089 23.3431C35.2447 22.9669 35.3253 22.6444 35.4508 22.3756C35.5941 22.089 35.7822 21.8829 36.0151 21.7575C36.266 21.6142 36.5706 21.6052 36.9289 21.7306ZM38.7547 30.1963C38.9697 29.6408 39.2922 29.2108 39.7222 28.9062C40.1701 28.5838 40.5643 28.4135 40.9047 28.3956C41.263 28.3777 41.5049 28.53 41.6303 28.8525C41.7737 29.1571 41.6572 29.6408 41.281 30.3037C40.9047 30.9846 40.4837 31.764 40.0178 32.6419C39.552 33.5198 39.113 34.3619 38.701 35.1681C38.2172 36.0998 37.7335 37.0404 37.2497 37.99C38.1814 36.8971 39.0772 35.8669 39.9372 34.8994C40.2955 34.4873 40.6628 34.0752 41.0391 33.6631C41.4332 33.2331 41.8095 32.83 42.1678 32.4537C42.5441 32.0596 42.8845 31.7102 43.1891 31.4056C43.5116 31.0831 43.7893 30.8233 44.0222 30.6263C44.4701 30.2321 44.8643 29.9813 45.2047 29.8738C45.563 29.7663 45.8318 29.7842 46.011 29.9275C46.208 30.0529 46.3066 30.3037 46.3066 30.68C46.3066 31.0383 46.1901 31.5131 45.9572 32.1044C45.5989 33.0181 45.2943 33.8692 45.0435 34.6575C44.8105 35.4458 44.6224 36.1267 44.4791 36.7C44.2999 37.3808 44.1655 37.99 44.076 38.5275L49.3435 31.4056C49.6122 30.9935 49.863 30.7158 50.096 30.5725C50.3468 30.4292 50.526 30.4023 50.6335 30.4919C50.7589 30.5635 50.8037 30.7427 50.7678 31.0294C50.732 31.316 50.5707 31.6744 50.2841 32.1044C49.5495 33.1256 48.8687 34.0752 48.2416 34.9531C47.9728 35.3294 47.6951 35.7146 47.4085 36.1087C47.1218 36.485 46.853 36.8523 46.6022 37.2106C46.3514 37.551 46.1185 37.8646 45.9035 38.1513C45.7064 38.4379 45.5451 38.6708 45.4197 38.85C45.1689 39.2083 44.8912 39.5308 44.5866 39.8175C44.282 40.0863 43.9864 40.2385 43.6997 40.2744C43.431 40.3102 43.1891 40.1937 42.9741 39.925C42.7591 39.6562 42.6247 39.1456 42.571 38.3931C42.5351 37.981 42.5351 37.5421 42.571 37.0762C42.6068 36.6104 42.6516 36.1804 42.7053 35.7862C42.777 35.3204 42.8487 34.8725 42.9203 34.4425C42.2753 34.8904 41.6214 35.41 40.9585 36.0012C40.2955 36.5746 39.6595 37.1838 39.0503 37.8288C38.4412 38.4738 37.8768 39.1277 37.3572 39.7906C36.8376 40.4356 36.3897 41.0537 36.0135 41.645C35.6014 42.29 35.261 42.7021 34.9922 42.8812C34.7055 43.0783 34.4905 43.1142 34.3472 42.9888C34.2039 42.8813 34.1412 42.6573 34.1591 42.3169C34.1591 41.9944 34.2576 41.6271 34.4547 41.215C34.6339 40.8208 34.8399 40.3371 35.0728 39.7637C35.3057 39.1904 35.5924 38.4738 35.9328 37.6138C36.2553 36.7537 36.6495 35.7235 37.1153 34.5231C37.5632 33.3227 38.1097 31.8804 38.7547 30.1963ZM59.1629 32.1044C57.425 35.0248 55.8215 37.775 54.3523 40.355C52.8831 42.9171 51.5842 45.2194 50.4554 47.2619C49.3446 49.3223 48.4219 51.0692 47.6873 52.5025C46.9527 53.9358 46.469 54.966 46.236 55.5931C45.9852 56.2202 45.7433 56.686 45.5104 56.9906C45.2775 57.3131 45.0804 57.4923 44.9192 57.5281C44.7579 57.564 44.6415 57.4565 44.5698 57.2056C44.4981 56.9548 44.516 56.5785 44.6235 56.0769C44.6594 55.8619 44.7848 55.4319 44.9998 54.7869C45.2148 54.1598 45.4835 53.3894 45.806 52.4756C46.1106 51.5619 46.469 50.5317 46.881 49.385C47.2931 48.2383 47.7231 47.0379 48.171 45.7837C48.619 44.5475 49.0669 43.2844 49.5148 41.9944C49.9806 40.7044 50.4285 39.4592 50.8585 38.2588C50.4106 38.8858 49.9806 39.4771 49.5685 40.0325C49.1565 40.57 48.825 40.991 48.5742 41.2956C48.2517 41.6898 47.974 41.8869 47.741 41.8869C47.5081 41.8869 47.32 41.7794 47.1767 41.5644C47.0333 41.3494 46.9348 41.0627 46.881 40.7044C46.8273 40.346 46.8183 39.9877 46.8542 39.6294C46.9975 38.3215 47.2215 37.0583 47.526 35.84C47.8306 34.6217 48.1979 33.5556 48.6279 32.6419C49.0579 31.7102 49.5327 30.9846 50.0523 30.465C50.5898 29.9454 51.1631 29.7125 51.7723 29.7663C52.274 29.82 52.6233 30.035 52.8204 30.4112C53.0354 30.7875 53.1519 31.2175 53.1698 31.7012L53.7073 30.25C53.976 29.5692 54.2985 29.1302 54.6748 28.9331C55.069 28.7181 55.4183 28.6912 55.7229 28.8525C56.0454 28.9958 56.2783 29.2825 56.4217 29.7125C56.565 30.1246 56.5292 30.6083 56.3142 31.1637C56.2067 31.4325 56.0096 31.8894 55.7229 32.5344C55.4542 33.1794 55.1227 33.9319 54.7285 34.7919C54.3523 35.6519 53.9312 36.6015 53.4654 37.6406C53.0175 38.6619 52.5606 39.6921 52.0948 40.7312C51.629 41.7525 51.1721 42.7469 50.7242 43.7144C50.2942 44.6998 49.9 45.5777 49.5417 46.3481C49.1833 47.1365 48.8877 47.7815 48.6548 48.2831C48.4219 48.8027 48.2875 49.1073 48.2517 49.1969C48.2875 49.1073 48.4308 48.8385 48.6817 48.3906C48.9325 47.9427 49.246 47.3694 49.6223 46.6706C49.9985 45.9898 50.4285 45.2015 50.9123 44.3056C51.414 43.4098 51.9335 42.4781 52.471 41.5106C53.0085 40.5431 53.546 39.5667 54.0835 38.5813C54.639 37.5958 55.1675 36.6552 55.6692 35.7594C56.1887 34.8456 56.6635 34.0125 57.0935 33.26C57.5415 32.5075 57.9177 31.8894 58.2223 31.4056C58.4731 30.9756 58.715 30.689 58.9479 30.5456C59.1808 30.4023 59.351 30.3754 59.4585 30.465C59.584 30.5367 59.6287 30.7158 59.5929 31.0025C59.575 31.2892 59.4317 31.6565 59.1629 32.1044ZM50.4285 33.9588C50.1777 34.2275 49.909 34.6485 49.6223 35.2219C49.3356 35.7773 49.0758 36.3775 48.8429 37.0225C48.5921 37.6675 48.386 38.3035 48.2248 38.9306C48.0635 39.5398 47.9829 40.0325 47.9829 40.4088C48.3412 39.9071 48.7354 39.3696 49.1654 38.7963C49.5775 38.205 49.9806 37.6227 50.3748 37.0494C50.7869 36.476 51.1721 35.9385 51.5304 35.4369C51.8887 34.9352 52.1933 34.5052 52.4442 34.1469C52.4621 33.9319 52.4352 33.7258 52.3635 33.5288C52.2919 33.3317 52.1665 33.2062 51.9873 33.1525C51.826 33.0808 51.611 33.0987 51.3423 33.2062C51.0735 33.3138 50.769 33.5646 50.4285 33.9588ZM60.379 31.54C60.2715 32.1312 60.2536 32.6956 60.3253 33.2331C60.3969 33.7527 60.5134 34.2633 60.6746 34.765C60.8359 35.2488 61.015 35.7325 61.2121 36.2163C61.4092 36.6821 61.5794 37.1569 61.7228 37.6406C62.2961 36.9598 62.9859 36.0819 63.7921 35.0069C64.6163 33.914 65.4046 32.7135 66.1571 31.4056C66.408 30.9756 66.6409 30.689 66.8559 30.5456C67.0888 30.3844 67.268 30.3485 67.3934 30.4381C67.5188 30.5098 67.5636 30.6979 67.5278 31.0025C67.5098 31.2892 67.3665 31.6565 67.0978 32.1044C65.9869 34.0035 65.0015 35.4996 64.1415 36.5925C63.2815 37.6854 62.5738 38.5096 62.0184 39.065C62.0542 39.5846 61.9825 40.1131 61.8034 40.6506C61.6421 41.1881 61.3196 41.7615 60.8359 42.3706C60.2446 43.1052 59.6803 43.6427 59.1428 43.9831C58.6053 44.3415 58.1573 44.5206 57.799 44.5206C57.4228 44.5206 57.163 44.3594 57.0196 44.0369C56.8763 43.7144 56.8853 43.2575 57.0465 42.6663C57.1719 42.2542 57.4317 41.8062 57.8259 41.3225C58.2021 40.8567 58.5963 40.4267 59.0084 40.0325C59.4921 39.5667 60.0207 39.1187 60.594 38.6887C60.6657 38.3842 60.594 37.999 60.379 37.5331C60.164 37.0673 59.9132 36.5656 59.6265 36.0281C59.3398 35.4727 59.0532 34.9083 58.7665 34.335C58.4978 33.7438 58.3365 33.1615 58.2828 32.5881C58.1573 31.531 58.2648 30.6621 58.6053 29.9813C58.9457 29.3004 59.3488 28.8256 59.8146 28.5569C60.2805 28.2702 60.7194 28.1896 61.1315 28.315C61.5436 28.4404 61.7675 28.7719 61.8034 29.3094C61.8213 29.6498 61.7586 29.9544 61.6153 30.2231C61.4898 30.4919 61.3286 30.7248 61.1315 30.9219C60.9165 31.1548 60.6657 31.3608 60.379 31.54ZM75.4374 32.1044C74.882 32.9106 74.2997 33.7258 73.6905 34.55C73.0814 35.3562 72.4632 36.1356 71.8362 36.8881C71.227 37.6227 70.6178 38.3125 70.0087 38.9575C69.3995 39.6025 68.8172 40.1758 68.2618 40.6775C67.7243 41.1792 67.2584 41.5196 66.8643 41.6987C66.4701 41.8779 66.1655 41.9227 65.9505 41.8331C65.7176 41.7615 65.5832 41.5644 65.5474 41.2419C65.4937 40.9194 65.5384 40.5162 65.6818 40.0325C65.8789 39.3158 66.1387 38.42 66.4612 37.345C66.7837 36.27 67.1151 35.1681 67.4555 34.0394C67.8139 32.8927 68.1543 31.8088 68.4768 30.7875C68.8172 29.7483 69.1128 28.9152 69.3637 28.2881C69.1128 28.7002 68.8082 29.2288 68.4499 29.8738C68.1095 30.5008 67.7153 31.2175 67.2674 32.0238C67.0166 32.4896 66.7478 32.839 66.4612 33.0719C66.1745 33.3048 65.9505 33.4033 65.7893 33.3675C65.628 33.3317 65.5653 33.1525 65.6012 32.83C65.6191 32.5075 65.8072 32.0327 66.1655 31.4056C66.4164 30.9756 66.7568 30.3575 67.1868 29.5512C67.6347 28.745 68.1274 27.8492 68.6649 26.8637C69.2024 25.8604 69.7578 24.8212 70.3312 23.7462C70.9224 22.6533 71.4868 21.6052 72.0243 20.6019C72.5618 19.5985 73.0545 18.6848 73.5024 17.8606C73.9503 17.0185 74.2997 16.3646 74.5505 15.8987C74.8014 15.4329 75.1239 15.0656 75.518 14.7969C75.9301 14.5102 76.3064 14.3669 76.6468 14.3669C77.0051 14.3669 77.2739 14.5281 77.453 14.8506C77.6501 15.1552 77.668 15.6479 77.5068 16.3287C77.3634 16.9917 76.9872 17.8696 76.378 18.9625C75.7689 20.0375 74.8372 21.3454 73.583 22.8863C73.3501 23.4058 73.0634 24.0956 72.723 24.9556C72.3826 25.8156 72.0153 26.7742 71.6212 27.8312C71.227 28.8704 70.8149 29.9633 70.3849 31.11C69.9728 32.2567 69.5697 33.3765 69.1755 34.4694C68.7814 35.5623 68.4141 36.5835 68.0737 37.5331C67.7332 38.4827 67.4555 39.28 67.2405 39.925C68.1901 38.9217 69.1128 37.9273 70.0087 36.9419C70.3849 36.5119 70.7791 36.064 71.1912 35.5981C71.6032 35.1323 72.0064 34.6665 72.4005 34.2006C72.7947 33.7169 73.1709 33.2421 73.5293 32.7763C73.8876 32.2925 74.2101 31.8356 74.4968 31.4056C74.7655 30.9935 75.0253 30.7158 75.2762 30.5725C75.527 30.4292 75.7062 30.4023 75.8137 30.4919C75.9391 30.5635 75.9749 30.7427 75.9212 31.0294C75.8853 31.316 75.7241 31.6744 75.4374 32.1044ZM74.3456 41.7794C74.5964 41.869 74.9279 41.7883 75.34 41.5375C75.7521 41.3046 76.2 40.9552 76.6837 40.4894C77.1854 40.0235 77.7229 39.4592 78.2962 38.7963C78.8696 38.1154 79.4429 37.3808 80.0162 36.5925C80.6075 35.7863 81.1808 34.9442 81.7362 34.0663C82.3096 33.1883 82.8471 32.3015 83.3487 31.4056C83.5816 30.9756 83.8146 30.689 84.0475 30.5456C84.2804 30.3844 84.4506 30.3485 84.5581 30.4381C84.6835 30.5098 84.7373 30.6979 84.7194 31.0025C84.7014 31.2892 84.5581 31.6565 84.2894 32.1044C83.4294 33.5556 82.5514 34.9621 81.6556 36.3237C80.7598 37.6675 79.8639 38.859 78.9681 39.8981C78.0902 40.9373 77.2212 41.7525 76.3612 42.3438C75.5191 42.935 74.7129 43.1858 73.9425 43.0962C73.4229 43.0425 73.0556 42.711 72.8406 42.1019C72.6077 41.4927 72.5002 40.7223 72.5181 39.7906C72.5181 38.859 72.6256 37.8377 72.8406 36.7269C73.0377 35.5981 73.3154 34.4963 73.6737 33.4213C74.0321 32.3462 74.4441 31.3608 74.91 30.465C75.3937 29.5692 75.9044 28.8883 76.4419 28.4225C76.8898 28.0283 77.3108 27.7865 77.705 27.6969C78.0991 27.6073 78.4485 27.6521 78.7531 27.8312C79.0756 27.9925 79.3354 28.2702 79.5325 28.6644C79.7296 29.0585 79.855 29.5423 79.9087 30.1156C79.9804 30.9219 79.9087 31.7729 79.6937 32.6688C79.4966 33.5646 79.1921 34.3977 78.78 35.1681C78.3858 35.9206 77.911 36.5567 77.3556 37.0762C76.8002 37.5958 76.2089 37.8735 75.5819 37.9094C75.0802 37.9273 74.695 37.7929 74.4262 37.5063C74.2829 38.0438 74.1754 38.5633 74.1037 39.065C74.0141 39.5667 73.9604 40.0146 73.9425 40.4088C73.9246 40.785 73.9514 41.0896 74.0231 41.3225C74.0769 41.5733 74.1844 41.7256 74.3456 41.7794ZM77.6781 30.895C77.4094 31.0742 77.1316 31.3519 76.845 31.7281C76.5762 32.0865 76.3164 32.5075 76.0656 32.9912C75.8148 33.475 75.5729 34.0035 75.34 34.5769C75.125 35.1502 74.9279 35.7235 74.7487 36.2969C75.1071 36.6015 75.4923 36.6373 75.9044 36.4044C76.3344 36.1535 76.7106 35.7504 77.0331 35.195C77.3556 34.6217 77.5885 33.9498 77.7319 33.1794C77.8752 32.409 77.8573 31.6475 77.6781 30.895ZM87.3716 29.82C87.0491 30.3217 86.7087 30.8771 86.3503 31.4863C86.0099 32.0954 85.6695 32.7225 85.3291 33.3675C85.0066 34.0125 84.702 34.6575 84.4153 35.3025C84.1466 35.9296 83.9137 36.5208 83.7166 37.0762C83.5374 37.6317 83.412 38.1154 83.3403 38.5275C83.2687 38.9396 83.2866 39.2442 83.3941 39.4413L89.9516 30.25C90.292 29.5333 90.7041 28.9869 91.1878 28.6106C91.6716 28.2344 92.1016 28.0373 92.4778 28.0194C92.872 27.9835 93.1587 28.1269 93.3378 28.4494C93.517 28.754 93.4722 29.2288 93.2035 29.8738C93.078 30.1425 92.8989 30.5546 92.666 31.11C92.433 31.6475 92.1643 32.2656 91.8597 32.9644C91.5551 33.6452 91.2237 34.3888 90.8653 35.195C90.5249 35.9833 90.1845 36.7717 89.8441 37.56C89.0199 39.4054 88.133 41.4121 87.1835 43.58C88.133 42.0212 89.0557 40.4894 89.9516 38.9844C90.3278 38.3394 90.722 37.6765 91.1341 36.9956C91.5641 36.3148 91.9762 35.6519 92.3703 35.0069C92.7824 34.344 93.1766 33.7079 93.5528 33.0987C93.9291 32.4717 94.2695 31.9073 94.5741 31.4056C94.8428 30.9756 95.0847 30.689 95.2997 30.5456C95.5326 30.4023 95.7118 30.3754 95.8372 30.465C95.9626 30.5367 96.0074 30.7158 95.9716 31.0025C95.9357 31.2892 95.7835 31.6565 95.5147 32.1044C94.368 34.0573 93.311 35.8131 92.3435 37.3719C91.3939 38.9127 90.516 40.346 89.7097 41.6719C88.9035 42.9977 88.1599 44.234 87.4791 45.3806C86.7982 46.5452 86.1443 47.7008 85.5172 48.8475C84.8901 49.9942 84.281 51.1677 83.6897 52.3681C83.1164 53.5865 82.5341 54.9033 81.9428 56.3187C81.6741 56.9458 81.4232 57.4117 81.1903 57.7162C80.9574 58.0387 80.7603 58.209 80.5991 58.2269C80.4378 58.2627 80.3303 58.1552 80.2766 57.9044C80.2049 57.6715 80.2228 57.3042 80.3303 56.8025C80.3662 56.6054 80.5364 56.0679 80.841 55.19C81.1455 54.3121 81.5307 53.2192 81.9966 51.9112C82.4624 50.6033 82.982 49.1521 83.5553 47.5575C84.1287 45.9808 84.711 44.3862 85.3022 42.7738C85.8935 41.1613 86.4668 39.6115 87.0222 38.1244C87.5776 36.6194 88.0614 35.3025 88.4735 34.1738C88.2226 34.5679 87.9449 34.989 87.6403 35.4369C87.3357 35.8848 87.0222 36.3417 86.6997 36.8075C86.3951 37.2554 86.0816 37.7033 85.7591 38.1513C85.4366 38.5992 85.123 39.0112 84.8185 39.3875C84.2989 40.0325 83.8778 40.5431 83.5553 40.9194C83.2328 41.2956 82.9462 41.4121 82.6953 41.2688C82.3907 41.1075 82.1668 40.7223 82.0235 40.1131C81.8622 39.504 81.7995 38.7515 81.8353 37.8556C81.8532 36.9598 81.9876 35.9654 82.2385 34.8725C82.4714 33.7617 82.8207 32.6329 83.2866 31.4863C83.5912 30.7337 83.9316 30.1335 84.3078 29.6856C84.6841 29.2198 85.0514 28.8883 85.4097 28.6913C85.768 28.4763 86.0995 28.3688 86.4041 28.3688C86.7266 28.3508 86.9864 28.4135 87.1835 28.5569C87.3805 28.6823 87.497 28.8615 87.5328 29.0944C87.5866 29.3273 87.5328 29.5692 87.3716 29.82ZM30.7115 103.62C30.7294 103.53 30.8638 103.029 31.1146 102.115C31.3655 101.201 31.6969 99.9919 32.109 98.4869C32.5211 96.9819 32.9959 95.235 33.5334 93.2463C34.0709 91.2575 34.6442 89.1433 35.2534 86.9038C35.8626 84.6463 36.4807 82.326 37.1078 79.9431C37.7528 77.5602 38.3888 75.2221 39.0159 72.9287C38.0663 75.2579 37.0182 77.605 35.8715 79.97C34.7428 82.3171 33.5513 84.5746 32.2971 86.7425C31.043 88.9104 29.753 90.9171 28.4271 92.7625C27.1192 94.6258 25.8113 96.2115 24.5034 97.5194C23.1955 98.8273 21.9055 99.8038 20.6334 100.449C19.3613 101.094 18.1609 101.291 17.0321 101.04C15.9571 100.807 15.1688 100.261 14.6671 99.4006C14.1655 98.5406 13.8788 97.4567 13.8071 96.1488C13.7355 94.8408 13.843 93.3448 14.1296 91.6606C14.4342 89.9944 14.8642 88.2385 15.4196 86.3931C15.9751 84.5477 16.6201 82.6575 17.3546 80.7225C18.0892 78.7696 18.8507 76.8704 19.639 75.025C20.4274 73.1617 21.2157 71.3969 22.004 69.7306C22.8103 68.0465 23.5449 66.5415 24.2078 65.2156C24.8707 63.8898 25.4351 62.7879 25.9009 61.91C26.3846 61.0142 26.7071 60.4408 26.8684 60.19C27.1371 59.76 27.4507 59.4196 27.809 59.1687C28.1674 58.9179 28.5167 58.7388 28.8571 58.6312C29.2155 58.5238 29.5469 58.479 29.8515 58.4969C30.174 58.5148 30.4249 58.5775 30.604 58.685C30.8011 58.7925 30.8996 58.9358 30.8996 59.115C30.9176 59.2942 30.8101 59.4912 30.5771 59.7063C30.4338 59.8317 30.1113 60.3065 29.6096 61.1306C29.108 61.9369 28.4899 62.994 27.7553 64.3019C27.0207 65.5919 26.2055 67.079 25.3096 68.7631C24.4317 70.4473 23.5359 72.23 22.6221 74.1113C21.7084 75.9925 20.8126 77.9275 19.9346 79.9162C19.0567 81.8871 18.2684 83.8131 17.5696 85.6944C16.8709 87.5577 16.2886 89.3315 15.8228 91.0156C15.3749 92.6998 15.1061 94.1869 15.0165 95.4769C14.9449 96.7669 15.0882 97.806 15.4465 98.5944C15.8049 99.4006 16.4499 99.8575 17.3815 99.965C18.4207 100.09 19.5226 99.8038 20.6871 99.105C21.8517 98.4062 23.0432 97.394 24.2615 96.0681C25.4799 94.7423 26.7071 93.1567 27.9434 91.3113C29.1796 89.4658 30.389 87.4681 31.5715 85.3181C32.7719 83.1681 33.9365 80.9106 35.0653 78.5456C36.194 76.1627 37.2421 73.7888 38.2096 71.4238C39.1951 69.0408 40.0909 66.7117 40.8971 64.4362C41.7213 62.1608 42.4201 60.0377 42.9934 58.0669C43.298 56.974 43.5399 56.0781 43.719 55.3794C43.8982 54.6806 44.0057 54.2596 44.0415 54.1163C44.1669 53.5788 44.3909 53.2652 44.7134 53.1756C45.0359 53.086 45.3405 53.1577 45.6271 53.3906C45.9317 53.6056 46.1646 53.955 46.3259 54.4388C46.4871 54.9046 46.4871 55.4331 46.3259 56.0244C46.2721 56.2035 46.093 56.7858 45.7884 57.7713C45.5017 58.7567 45.1165 60.0288 44.6328 61.5875C44.1669 63.1463 43.6205 64.9379 42.9934 66.9625C42.3842 68.9871 41.7392 71.1281 41.0584 73.3856C40.3776 75.6252 39.6699 77.9275 38.9353 80.2925C38.2186 82.6396 37.5199 84.9329 36.839 87.1725C36.1582 89.3942 35.5132 91.4994 34.904 93.4881C34.2949 95.4948 33.7574 97.2596 33.2915 98.7825C32.8257 100.305 32.4494 101.533 32.1628 102.464C31.894 103.414 31.7417 103.942 31.7059 104.05C31.6163 104.337 31.4999 104.525 31.3565 104.614C31.2132 104.722 31.0788 104.749 30.9534 104.695C30.8459 104.641 30.7563 104.516 30.6846 104.319C30.613 104.14 30.6219 103.907 30.7115 103.62ZM58.5658 80.1044C57.867 81.3406 57.1414 82.6038 56.3889 83.8938C55.6364 85.1838 54.8929 86.411 54.1583 87.5756C53.4237 88.7223 52.716 89.7704 52.0352 90.72C51.3543 91.6696 50.7362 92.4221 50.1808 92.9775C49.9299 93.2283 49.6702 93.4523 49.4014 93.6494C49.1327 93.8465 48.8729 93.9629 48.622 93.9988C48.3891 94.0346 48.1741 93.954 47.977 93.7569C47.7979 93.5777 47.6635 93.2283 47.5739 92.7087C47.4843 92.2429 47.4216 91.6517 47.3858 90.935C47.3499 90.2183 47.341 89.4658 47.3589 88.6775C47.3768 87.8713 47.4216 87.065 47.4933 86.2588C47.5649 85.4525 47.6635 84.7358 47.7889 84.1087C47.1439 84.7537 46.5168 85.4256 45.9077 86.1244C45.2985 86.8231 44.7252 87.5398 44.1877 88.2744C43.8652 88.9015 43.5785 89.1792 43.3277 89.1075C43.0768 89.0537 43.0589 88.6596 43.2739 87.925C43.3993 87.5129 43.5606 87.0023 43.7577 86.3931C43.9368 85.766 44.1339 85.0942 44.3489 84.3775C44.5639 83.6608 44.7879 82.9173 45.0208 82.1469C45.2716 81.3585 45.5135 80.5971 45.7464 79.8625C45.9793 79.1279 46.2033 78.4292 46.4183 77.7663C46.6512 77.1033 46.8662 76.53 47.0633 76.0462C47.0095 76.1358 46.911 76.3329 46.7677 76.6375C46.6422 76.9242 46.481 77.2556 46.2839 77.6319C46.1047 78.0081 45.8987 78.4113 45.6658 78.8413C45.4329 79.2533 45.2089 79.6296 44.9939 79.97C44.6893 80.4538 44.4206 80.7763 44.1877 80.9375C43.9547 81.0808 43.7845 81.1077 43.677 81.0181C43.5695 80.9285 43.5337 80.7404 43.5695 80.4537C43.6054 80.1671 43.7397 79.8177 43.9727 79.4056C44.4206 78.5994 44.9222 77.6498 45.4777 76.5569C46.0331 75.464 46.5795 74.371 47.117 73.2781C47.6545 72.1673 48.1562 71.1281 48.622 70.1606C49.0879 69.1752 49.4552 68.4048 49.7239 67.8494C50.2614 66.7565 50.8168 66.004 51.3902 65.5919C51.9635 65.1798 52.4562 64.9827 52.8683 65.0006C53.2804 65.0185 53.567 65.1977 53.7283 65.5381C53.8895 65.8785 53.8358 66.2548 53.567 66.6669C53.352 67.0073 53.0564 67.5627 52.6802 68.3331C52.3039 69.1035 51.8829 70.0173 51.417 71.0744C50.9512 72.1135 50.4585 73.2512 49.9389 74.4875C49.4193 75.7237 48.8997 76.969 48.3802 78.2231C47.8606 79.4594 47.3589 80.6598 46.8752 81.8244C46.3914 82.989 45.9614 84.0371 45.5852 84.9688C46.0331 84.4313 46.5437 83.8131 47.117 83.1144C47.7083 82.4156 48.3174 81.7169 48.9445 81.0181C49.5716 80.3015 50.1897 79.6296 50.7989 79.0025C51.4081 78.3575 51.9635 77.82 52.4652 77.39C53.1997 76.7629 53.8806 76.3867 54.5077 76.2613C55.1527 76.1179 55.6722 76.109 56.0664 76.2344C56.4785 76.3598 56.7293 76.5569 56.8189 76.8256C56.9264 77.0944 56.8189 77.3094 56.4964 77.4706C55.5647 77.9185 54.5883 78.4919 53.567 79.1906C52.5458 79.8894 51.5066 80.6956 50.4495 81.6094C50.1629 82.1827 49.912 82.9262 49.697 83.84C49.482 84.7358 49.3118 85.6854 49.1864 86.6887C49.061 87.6921 48.9804 88.6865 48.9445 89.6719C48.9087 90.6752 48.9356 91.5442 49.0252 92.2788C49.3297 92.0996 49.7149 91.7144 50.1808 91.1231C50.6466 90.5498 51.1393 89.86 51.6589 89.0537C52.1964 88.2654 52.7518 87.4054 53.3252 86.4738C53.8985 85.5421 54.4539 84.6373 54.9914 83.7594C55.5289 82.8635 56.0216 82.0304 56.4695 81.26C56.9354 80.4896 57.3206 79.8715 57.6252 79.4056C57.8939 78.9935 58.1447 78.7158 58.3777 78.5725C58.6106 78.4112 58.7808 78.3754 58.8883 78.465C59.0137 78.5367 59.0585 78.7158 59.0227 79.0025C58.9868 79.2892 58.8345 79.6565 58.5658 80.1044ZM57.4857 89.7794C57.7366 89.869 58.068 89.7883 58.4801 89.5375C58.8922 89.3046 59.3401 88.9552 59.8239 88.4894C60.3255 88.0235 60.863 87.4592 61.4364 86.7963C62.0097 86.1154 62.583 85.3808 63.1564 84.5925C63.7476 83.7863 64.321 82.9442 64.8764 82.0663C65.4497 81.1883 65.9872 80.3015 66.4889 79.4056C66.7218 78.9756 66.9547 78.689 67.1876 78.5456C67.4205 78.3844 67.5907 78.3485 67.6982 78.4381C67.8237 78.5098 67.8774 78.6979 67.8595 79.0025C67.8416 79.2892 67.6982 79.6565 67.4295 80.1044C66.5695 81.5556 65.6916 82.9621 64.7957 84.3237C63.8999 85.6675 63.0041 86.859 62.1082 87.8981C61.2303 88.9373 60.3614 89.7525 59.5014 90.3438C58.6593 90.935 57.853 91.1858 57.0826 91.0962C56.563 91.0425 56.1957 90.711 55.9807 90.1019C55.7478 89.4927 55.6403 88.7223 55.6582 87.7906C55.6582 86.859 55.7657 85.8377 55.9807 84.7269C56.1778 83.5981 56.4555 82.4963 56.8139 81.4213C57.1722 80.3462 57.5843 79.3608 58.0501 78.465C58.5339 77.5692 59.0445 76.8883 59.582 76.4225C60.0299 76.0283 60.451 75.7865 60.8451 75.6969C61.2393 75.6073 61.5887 75.6521 61.8932 75.8312C62.2157 75.9925 62.4755 76.2702 62.6726 76.6644C62.8697 77.0585 62.9951 77.5423 63.0489 78.1156C63.1205 78.9219 63.0489 79.7729 62.8339 80.6688C62.6368 81.5646 62.3322 82.3977 61.9201 83.1681C61.526 83.9206 61.0512 84.5567 60.4957 85.0762C59.9403 85.5958 59.3491 85.8735 58.722 85.9094C58.2203 85.9273 57.8351 85.7929 57.5664 85.5063C57.423 86.0438 57.3155 86.5633 57.2439 87.065C57.1543 87.5667 57.1005 88.0146 57.0826 88.4088C57.0647 88.785 57.0916 89.0896 57.1632 89.3225C57.217 89.5733 57.3245 89.7256 57.4857 89.7794ZM60.8182 78.895C60.5495 79.0742 60.2718 79.3519 59.9851 79.7281C59.7164 80.0865 59.4566 80.5075 59.2057 80.9912C58.9549 81.475 58.713 82.0035 58.4801 82.5769C58.2651 83.1502 58.068 83.7235 57.8889 84.2969C58.2472 84.6015 58.6324 84.6373 59.0445 84.4044C59.4745 84.1535 59.8507 83.7504 60.1732 83.195C60.4957 82.6217 60.7287 81.9498 60.872 81.1794C61.0153 80.409 60.9974 79.6475 60.8182 78.895ZM73.2798 80.1044C69.7861 85.9631 66.9642 90.6842 64.8142 94.2675C62.6463 97.8508 61.2309 100.234 60.568 101.416C59.4034 103.495 58.4896 104.838 57.8267 105.447C57.1638 106.075 56.9309 105.886 57.128 104.883C57.1817 104.632 57.343 104.104 57.6117 103.298C57.8805 102.509 58.2209 101.542 58.633 100.395C59.0271 99.2662 59.484 98.0031 60.0036 96.6056C60.5232 95.2081 61.0517 93.7748 61.5892 92.3056C62.1267 90.8544 62.6642 89.421 63.2017 88.0056C63.7392 86.5902 64.2319 85.2913 64.6798 84.1087C65.1278 82.9083 65.5219 81.8781 65.8623 81.0181C66.1848 80.1581 66.4088 79.5579 66.5342 79.2175C66.803 78.5367 67.0986 78.1335 67.4211 78.0081C67.7615 77.8827 68.0571 77.9365 68.308 78.1694C68.5588 78.4023 68.729 78.7696 68.8186 79.2713C68.9082 79.755 68.8455 80.2746 68.6305 80.83C68.523 81.0987 68.3259 81.5467 68.0392 82.1738C67.7705 82.8008 67.448 83.5354 67.0717 84.3775C66.6955 85.2196 66.2923 86.1423 65.8623 87.1456C65.4144 88.131 64.9665 89.1165 64.5186 90.1019C64.0707 91.0873 63.6407 92.0458 63.2286 92.9775C62.7986 93.9092 62.4223 94.7333 62.0998 95.45C61.7594 96.1846 61.4907 96.7758 61.2936 97.2237C61.0786 97.6896 60.9621 97.9494 60.9442 98.0031L72.3392 79.4056C72.608 78.9756 72.8498 78.689 73.0648 78.5456C73.2978 78.4023 73.468 78.3754 73.5755 78.465C73.7009 78.5367 73.7457 78.7158 73.7098 79.0025C73.6919 79.2892 73.5486 79.6565 73.2798 80.1044ZM72.0705 69.8113C72.608 70.1875 72.8319 70.6175 72.7423 71.1013C72.6707 71.585 72.4467 72.0329 72.0705 72.445C71.7121 72.8392 71.2911 73.1617 70.8073 73.4125C70.3415 73.6633 69.9832 73.744 69.7323 73.6544C69.5711 73.6006 69.4636 73.4394 69.4098 73.1706C69.374 72.884 69.383 72.5615 69.4367 72.2031C69.4905 71.8269 69.589 71.4506 69.7323 71.0744C69.8936 70.6802 70.0817 70.3488 70.2967 70.08C70.5296 69.8112 70.7984 69.641 71.103 69.5694C71.4076 69.4977 71.7301 69.5783 72.0705 69.8113ZM72.225 89.7794C72.4758 89.869 72.8073 89.7883 73.2194 89.5375C73.6315 89.3046 74.0794 88.9552 74.5631 88.4894C75.0648 88.0235 75.6023 87.4592 76.1756 86.7963C76.749 86.1154 77.3223 85.3808 77.8956 84.5925C78.4869 83.7863 79.0602 82.9442 79.6156 82.0663C80.189 81.1883 80.7265 80.3015 81.2281 79.4056C81.461 78.9756 81.694 78.689 81.9269 78.5456C82.1598 78.3844 82.33 78.3485 82.4375 78.4381C82.5629 78.5098 82.6167 78.6979 82.5987 79.0025C82.5808 79.2892 82.4375 79.6565 82.1688 80.1044C81.3088 81.5556 80.4308 82.9621 79.535 84.3237C78.6392 85.6675 77.7433 86.859 76.8475 87.8981C75.9696 88.9373 75.1006 89.7525 74.2406 90.3438C73.3985 90.935 72.5923 91.1858 71.8219 91.0962C71.3023 91.0425 70.935 90.711 70.72 90.1019C70.4871 89.4927 70.3796 88.7223 70.3975 87.7906C70.3975 86.859 70.505 85.8377 70.72 84.7269C70.9171 83.5981 71.1948 82.4963 71.5531 81.4213C71.9115 80.3462 72.3235 79.3608 72.7894 78.465C73.2731 77.5692 73.7838 76.8883 74.3213 76.4225C74.7692 76.0283 75.1902 75.7865 75.5844 75.6969C75.9785 75.6073 76.3279 75.6521 76.6325 75.8312C76.955 75.9925 77.2148 76.2702 77.4119 76.6644C77.609 77.0585 77.7344 77.5423 77.7881 78.1156C77.8598 78.9219 77.7881 79.7729 77.5731 80.6688C77.376 81.5646 77.0715 82.3977 76.6594 83.1681C76.2652 83.9206 75.7904 84.5567 75.235 85.0762C74.6796 85.5958 74.0883 85.8735 73.4612 85.9094C72.9596 85.9273 72.5744 85.7929 72.3056 85.5063C72.1623 86.0438 72.0548 86.5633 71.9831 87.065C71.8935 87.5667 71.8398 88.0146 71.8219 88.4088C71.804 88.785 71.8308 89.0896 71.9025 89.3225C71.9562 89.5733 72.0637 89.7256 72.225 89.7794ZM75.5575 78.895C75.2887 79.0742 75.011 79.3519 74.7244 79.7281C74.4556 80.0865 74.1958 80.5075 73.945 80.9912C73.6942 81.475 73.4523 82.0035 73.2194 82.5769C73.0044 83.1502 72.8073 83.7235 72.6281 84.2969C72.9865 84.6015 73.3717 84.6373 73.7837 84.4044C74.2137 84.1535 74.59 83.7504 74.9125 83.195C75.235 82.6217 75.4679 81.9498 75.6113 81.1794C75.7546 80.409 75.7367 79.6475 75.5575 78.895Z" transform="translate(-13 15.042) rotate(-21.6455)" fill="#173857"/>
</svg>
